<?xml version="1.0" standalone="no"?>
<!DOCTYPE svg PUBLIC "-//W3C//DTD SVG 20010904//EN"
 "http://www.w3.org/TR/2001/REC-SVG-20010904/DTD/svg10.dtd">
<svg version="1.0" xmlns="http://www.w3.org/2000/svg"
 width="70.000000pt" height="70.000000pt" viewBox="0 0 70.000000 70.000000"
 preserveAspectRatio="xMidYMid meet">
<metadata>
Created by potrace 1.11, written by Peter Selinger 2001-2013
</metadata>
<g transform="translate(0.000000,70.000000) scale(0.100000,-0.100000)"
fill="#000000" stroke="none">
<path d="M235 682 c-22 -9 -54 -25 -71 -34 -43 -23 -122 -115 -129 -150 -4
-15 -10 -28 -14 -28 -19 0 -21 -201 -2 -224 7 -9 11 -16 7 -16 -4 0 3 -17 13
-39 40 -77 140 -156 225 -178 33 -9 166 -9 166 -1 0 5 3 7 8 7 4 -1 10 0 15 1
4 1 10 3 15 4 29 7 52 19 52 27 0 6 4 8 9 5 13 -8 120 102 127 130 3 13 10 24
14 24 12 0 32 131 27 178 -21 182 -161 307 -347 310 -52 1 -87 -4 -115 -16z"/>
</g>
</svg>
